# Blender 4.5.0
# www.blender.org
o Plane
v -0.600889 -0.177232 0.625528
v 1.000000 0.000000 1.000000
v -1.000000 0.000000 -1.000000
v 0.877926 0.194333 -0.830172
v 0.015821 0.000000 1.000000
v 0.015821 0.000000 -1.000000
v -1.000000 0.000000 0.158460
v 0.015821 0.656659 0.158460
v -0.303706 -0.011963 -0.894223
v -0.460693 0.000000 1.000000
v 1.000000 0.000000 0.039400
v 0.015821 0.000000 -0.388008
v 0.930034 -0.022745 -0.668280
v -1.000000 0.000000 -0.388008
v -0.092915 0.286196 -0.752194
v 1.000000 0.000000 -0.450905
v -0.510127 0.255071 0.413593
v -1.000000 -0.134127 -0.738768
v 0.015821 -0.134127 -0.738768
v -0.539045 0.000000 -0.089514
v -0.684039 -0.078692 -0.809310
vn -0.5739 0.8184 -0.0296
vn 0.3265 0.8916 0.3138
vn -0.0540 0.8883 0.4561
vn -0.2136 0.7386 0.6394
vn -0.0978 0.8107 0.5772
vn -0.0633 0.8220 0.5659
vn -0.3362 0.9416 -0.0173
vn -0.1211 0.9855 -0.1190
vn 0.0659 0.9143 -0.3997
vn -0.3437 0.8683 0.3578
vn 0.3995 0.8692 -0.2913
vn 0.0571 0.9591 -0.2773
vn -0.1379 0.9812 0.1349
vn -0.1412 0.9872 -0.0743
vn 0.3436 0.8819 -0.3229
vn 0.0965 0.9082 -0.4073
vn -0.4991 0.8608 0.0996
vn -0.1729 0.9849 -0.0005
vn 0.3037 0.9522 0.0321
vn -0.3069 0.9436 0.1241
vn -0.2397 0.9704 -0.0304
vt 0.507910 0.932119
vt 1.000000 0.932119
vt 1.000000 1.000000
vt 0.507910 1.000000
vt 0.269653 0.203358
vt 0.507910 0.420770
vt 0.269653 0.420770
vt 0.507910 0.000000
vt 1.000000 0.420770
vt 0.507910 0.203358
vt 0.269653 0.772031
vt 0.507910 0.840974
vt 0.269653 0.902690
vt 1.000000 0.698974
vt 0.269653 0.000000
vt 0.122362 0.487793
vt 0.269653 0.568471
vt 0.122362 0.729411
vt 0.507910 0.698974
vt 1.000000 0.840974
vt 0.122362 0.884498
vt 0.000000 0.000000
vt 0.122362 0.420770
vt 0.000000 0.420770
vt 0.000000 0.869384
vt 0.000000 0.694004
vt 0.122362 1.000000
vt 0.000000 1.000000
s 1
f 19/1/19 13/2/13 4/3/4 6/4/6
f 17/5/17 8/6/8 12/7/12
f 5/8/5 2/9/2 8/10/8
f 15/11/15 12/12/12 19/1/19 9/13/9
f 8/6/8 2/9/2 11/14/11
f 9/13/9 19/1/19 6/4/6
f 10/15/10 5/8/5 8/10/8 17/5/17
f 20/16/20 12/17/12 15/11/15 14/18/14
f 8/19/8 11/14/11 16/20/16 12/12/12
f 14/18/14 15/11/15 9/13/9 21/21/21
f 1/22/1 10/15/10 17/5/17 12/7/12 20/23/20 7/24/7
f 12/12/12 16/20/16 13/2/13 19/1/19
f 14/18/14 21/21/21 18/25/18
f 7/24/7 20/16/20 14/26/14
f 18/25/18 21/21/21 9/27/9 3/28/3
