# Blender 4.5.0
# www.blender.org
o Plane
v -0.600889 -0.177232 0.625528
v 1.000000 0.000000 1.000000
v -1.000000 0.000000 -1.000000
v 0.877926 0.194333 -0.830172
v 0.015821 0.000000 1.000000
v 0.015821 0.000000 -1.000000
v -1.000000 0.000000 0.158460
v 0.015821 0.656659 0.158460
v -0.303706 -0.011963 -0.894223
v -0.460693 0.000000 1.000000
v 1.000000 0.000000 0.039400
v 0.015821 0.000000 -0.388008
v 0.930034 -0.022745 -0.668280
v -1.000000 0.000000 -0.388008
v -0.092915 0.286196 -0.752194
v 1.000000 0.000000 -0.450905
v -0.510127 0.255071 0.413593
v -1.000000 -0.134127 -0.738768
v 0.015821 -0.134127 -0.738768
v -0.539045 0.000000 -0.089514
v -0.684039 -0.078692 -0.809310
vn -0.2136 0.7386 0.6394
vn -0.6526 0.4847 -0.5824
vn -0.0000 0.7884 0.6152
vn 0.8269 0.1971 -0.5266
vn 0.5550 0.8318 -0.0000
vn 0.1171 0.8835 0.4536
vn -0.1944 0.8237 0.5327
vn -0.0000 0.9180 0.3965
vn 0.2263 0.8229 -0.5212
vn -0.3951 0.7278 -0.5606
vn -0.5739 0.8184 -0.0296
vn -0.0555 0.9642 -0.2594
vn -0.2367 0.9075 -0.3470
vn -0.0000 1.0000 -0.0000
vn -0.0540 0.8883 0.4561
vt 0.507910 0.932119
vt 1.000000 0.932119
vt 1.000000 1.000000
vt 0.507910 1.000000
vt 0.269653 0.203358
vt 0.507910 0.420770
vt 0.269653 0.420770
vt 0.507910 0.000000
vt 1.000000 0.420770
vt 0.507910 0.203358
vt 0.269653 0.772031
vt 0.507910 0.840974
vt 0.269653 0.902690
vt 1.000000 0.698974
vt 0.269653 0.000000
vt 0.122362 0.487793
vt 0.269653 0.568471
vt 0.122362 0.729411
vt 0.507910 0.698974
vt 1.000000 0.840974
vt 0.122362 0.884498
vt 0.000000 0.000000
vt 0.122362 0.420770
vt 0.000000 0.420770
vt 0.000000 0.869384
vt 0.000000 0.694004
vt 0.122362 1.000000
vt 0.000000 1.000000
s 0
f 19/1/1 13/2/1 4/3/1 6/4/1
f 17/5/2 8/6/2 12/7/2
f 5/8/3 2/9/3 8/10/3
f 15/11/4 12/12/4 19/1/4 9/13/4
f 8/6/5 2/9/5 11/14/5
f 9/13/6 19/1/6 6/4/6
f 10/15/7 5/8/7 8/10/7 17/5/7
f 20/16/8 12/17/8 15/11/8 14/18/8
f 8/19/9 11/14/9 16/20/9 12/12/9
f 14/18/10 15/11/10 9/13/10 21/21/10
f 1/22/11 10/15/11 17/5/11 12/7/11 20/23/11 7/24/11
f 12/12/12 16/20/12 13/2/12 19/1/12
f 14/18/13 21/21/13 18/25/13
f 7/24/14 20/16/14 14/26/14
f 18/25/15 21/21/15 9/27/15 3/28/15
